<?xml version="1.0" encoding="UTF-8"?>
<svg id="Capa_2" data-name="Capa 2" xmlns="http://www.w3.org/2000/svg" viewBox="0 0 24.13 42.47">
  <defs>
    <style>
      .cls-1 {
        fill: #fff;
      }
    </style>
  </defs>
  <g id="Capa_1-2" data-name="Capa 1">
    <g>
      <path class="cls-1" d="m23.16,0H.97C.43,0,0,.43,0,.97v40.54c0,.53.43.96.97.97h22.19c.53,0,.96-.44.97-.97V.97c0-.53-.43-.96-.97-.97Zm0,.97v3.86H.97V.97h22.19Zm0,4.82v30.88H.97V5.79h22.19ZM.97,41.51v-3.87h22.19v3.87H.97Z"/>
      <path class="cls-1" d="m9.65,3.38h4.83c.27,0,.48-.22.48-.48s-.22-.48-.48-.48h-4.83c-.27,0-.48.22-.48.48s.22.48.48.48Z"/>
      <path class="cls-1" d="m11.5,16.62c1.32.31,2.64-.51,2.95-1.83.31-1.32-.51-2.64-1.82-2.95-1.32-.31-2.64.51-2.95,1.82-.09.37-.09.75,0,1.12.21.91.92,1.61,1.82,1.83Zm.27-3.84c.8-.16,1.59.36,1.75,1.16.16.81-.36,1.59-1.17,1.75-.8.16-1.59-.36-1.75-1.16-.04-.19-.04-.39,0-.58.12-.59.58-1.05,1.17-1.16Z"/>
      <path class="cls-1" d="m9.44,20.7l1.79,3.76c.22.46.77.65,1.23.42.19-.09.34-.24.43-.43l1.8-3.77,2.09-4.61c1.02-2.61-.26-5.55-2.87-6.57-.59-.23-1.21-.35-1.84-.35-.85-.01-1.69.2-2.43.61-2.25,1.23-3.22,3.95-2.28,6.33l2.09,4.6Zm-.28-9.37c1.6-1.6,4.2-1.6,5.8,0,1.15,1.15,1.51,2.86.93,4.37l-2.08,4.58-1.74,3.67s0,0,0,0h0l-1.75-3.66-2.07-4.56c-.6-1.52-.24-3.24.92-4.4h0Z"/>
      <path class="cls-1" d="m4.83,27.98h14.47v.97H4.83v-.97Z"/>
      <path class="cls-1" d="m4.83,30.88h14.47v.96H4.83v-.96Z"/>
    </g>
  </g>
</svg>