<?xml version="1.0" encoding="UTF-8"?>
<svg id="Capa_2" data-name="Capa 2" xmlns="http://www.w3.org/2000/svg" viewBox="0 0 47.24 32.43">
  <defs>
    <style>
      .cls-1 {
        fill: #fff;
      }
    </style>
  </defs>
  <g id="Capa_1-2" data-name="Capa 1">
    <g>
      <path class="cls-1" d="m14.74,18.65h-4.39v-4.35c.34.21.73.32,1.14.32h4.06c1.11.02,2.05-.8,2.19-1.9.12-1.16-.73-2.2-1.89-2.32-.07-.01-.15-.01-.22-.01h-3.45l-1.79-1.32c-.34-.26-.66-.53-.97-.82l-.25-.23c-.75-.67-1.76-1-2.76-.88-1.85.23-3.24,1.81-3.2,3.68v8.48c0,1.99,1.61,3.6,3.6,3.6h5.83v6.8c-.01,1.11.8,2.05,1.9,2.19.07.01.14.01.21.01,1.17,0,2.12-.94,2.12-2.11h0v-9.04c0-1.17-.95-2.12-2.12-2.12Zm-5.86-7.03c-.28-.21-.68-.15-.89.14-.21.28-.15.68.14.89l.96.7v6.57h5.67c.46,0,.84.38.84.84v9.03c0,.47-.38.84-.84.84-.03,0-.06,0-.09,0-.45-.07-.77-.47-.75-.92v-8.08h-7.1c-1.28,0-2.32-1.04-2.32-2.32v-8.49c-.03-1.22.87-2.25,2.07-2.4.64-.07,1.28.14,1.76.57l.24.22c.34.32.7.62,1.07.9l2.13,1.57h3.87c.46,0,.84.38.84.84,0,.03,0,.06,0,.09-.07.45-.47.78-.92.75h-4.06c-.18,0-.35-.06-.5-.16l-2.11-1.56Z"/>
      <path class="cls-1" d="m6.39,6.38c1.76,0,3.19-1.42,3.19-3.19s-1.43-3.19-3.19-3.19-3.19,1.42-3.19,3.19,1.43,3.19,3.19,3.19Zm0-5.11c1.06,0,1.92.86,1.92,1.92s-.86,1.92-1.92,1.92-1.92-.86-1.92-1.92.86-1.92,1.92-1.92Z"/>
      <path class="cls-1" d="m10.85,24.77h-4.47c-2.82,0-5.1-2.28-5.11-5.11v-8.3c0-.35-.29-.64-.64-.64s-.64.29-.64.64v8.3c0,3.03,2.14,5.65,5.11,6.26v5.23H1.92v1.28h7.66v-1.28h-3.19v-5.11h4.47c.35,0,.64-.28.64-.64s-.29-.64-.64-.64Z"/>
      <path class="cls-1" d="m24.26,17.11h10.22c.35,0,.64-.29.64-.64s-.29-.64-.64-.64H12.77c-.35,0-.64.29-.64.64s.29.64.64.64h10.21v14.04h-4.47v1.28h10.21v-1.28h-4.47v-14.04Z"/>
      <path class="cls-1" d="m44.05,19.31v-8.47c.04-1.88-1.35-3.47-3.21-3.69-1.01-.11-2.01.21-2.76.88l-.25.23c-.31.29-.63.57-.97.82l-1.8,1.31h-3.45c-1.17,0-2.12.95-2.12,2.12,0,.07,0,.14.01.21.14,1.09,1.08,1.91,2.19,1.9h4.06c.4,0,.8-.12,1.14-.32v4.36h-4.39c-1.17,0-2.11.95-2.12,2.12v9.02c0,1.17.95,2.12,2.12,2.12h0c.07,0,.14,0,.21-.01,1.09-.14,1.91-1.08,1.9-2.19v-6.8h5.83c1.99,0,3.59-1.61,3.59-3.6Zm-7.79-6.12c-.15.1-.32.16-.5.16h-4.05c-.45.02-.85-.3-.92-.75-.05-.46.28-.87.75-.92.03,0,.06,0,.09,0h3.87l2.13-1.57c.37-.28.73-.58,1.07-.9l.25-.22c.48-.43,1.12-.63,1.75-.57,1.21.15,2.11,1.19,2.08,2.41v8.48c0,1.28-1.04,2.32-2.32,2.32h-7.1v8.08c.02.45-.3.85-.75.92-.24.03-.48-.05-.65-.21-.18-.16-.28-.39-.28-.62v-9.03c0-.46.38-.84.84-.84h5.67v-6.57l.96-.7c.28-.21.34-.61.13-.9s-.61-.35-.89-.14l-2.12,1.56Z"/>
      <path class="cls-1" d="m40.86,6.38c1.76,0,3.19-1.42,3.19-3.19s-1.43-3.19-3.19-3.19-3.2,1.42-3.2,3.19,1.43,3.19,3.2,3.19Zm0-5.11c1.06,0,1.91.86,1.91,1.92s-.85,1.92-1.91,1.92-1.92-.86-1.92-1.92.86-1.92,1.92-1.92Z"/>
      <path class="cls-1" d="m46.61,10.72c-.36,0-.64.29-.64.64v8.3c0,2.82-2.29,5.11-5.11,5.11h-4.47c-.36,0-.64.29-.64.64s.28.64.64.64h4.47v5.11h-3.2v1.28h7.66v-1.28h-3.2v-5.23c2.97-.61,5.11-3.23,5.11-6.26v-8.3c0-.35-.28-.64-.63-.64Z"/>
    </g>
  </g>
</svg>