<?xml version="1.0" encoding="UTF-8"?>
<svg id="Capa_2" data-name="Capa 2" xmlns="http://www.w3.org/2000/svg" viewBox="0 0 34.87 37.22">
  <defs>
    <style>
      .cls-1 {
        fill: #fff;
      }
    </style>
  </defs>
  <g id="Capa_1-2" data-name="Capa 1">
    <g>
      <path class="cls-1" d="m1.88,13.66h7.07v3.3l3.3-3.3h2.83l1.88,3.3,1.88-3.3h2.83l3.3,3.3v-3.3h7.54c1.04,0,1.88-.84,1.88-1.88V1.89c0-1.04-.84-1.89-1.88-1.89H1.88C.84,0,0,.84,0,1.89v9.89c0,1.04.84,1.88,1.88,1.88ZM.94,1.89c0-.52.42-.94.94-.94h30.63c.52,0,.94.42.94.94v9.89c0,.52-.43.94-.94.94h-8.48v1.96l-1.69-1.69-.28-.27h-3.76l-.27.47-1.07,1.87-1.07-1.87-.27-.47h-3.76l-.28.27-1.69,1.69v-1.96H1.88c-.52,0-.94-.42-.94-.94V1.89Z"/>
      <path class="cls-1" d="m4.71,4.24h22.14v.94H4.71v-.94Z"/>
      <path class="cls-1" d="m4.71,6.6h24.97v.94H4.71v-.94Z"/>
      <path class="cls-1" d="m4.71,8.95h17.43v.94H4.71v-.94Z"/>
      <path class="cls-1" d="m23.68,22.96c0,2.01,1.64,3.65,3.65,3.65s3.65-1.63,3.65-3.65-1.63-3.65-3.65-3.65-3.65,1.63-3.65,3.65Zm6.35,0c0,1.49-1.21,2.7-2.71,2.7s-2.7-1.21-2.7-2.7,1.21-2.7,2.7-2.7,2.7,1.21,2.71,2.7Z"/>
      <path class="cls-1" d="m3.89,23.06c0,2.01,1.63,3.65,3.65,3.65s3.65-1.63,3.65-3.65c0-2.01-1.63-3.65-3.65-3.65s-3.65,1.63-3.65,3.65Zm6.35,0c0,1.49-1.21,2.7-2.7,2.7s-2.7-1.21-2.7-2.7c0-1.49,1.21-2.7,2.7-2.7s2.7,1.21,2.7,2.7Z"/>
      <path class="cls-1" d="m33.99,29.51c-1.07-.83-2.3-1.43-3.61-1.77-.99-.3-2.01-.46-3.05-.46-1.03.02-2.05.17-3.04.46-1.3.37-2.52.97-3.61,1.76-.07.06-.14.12-.2.18.09.03.19.05.29.08.29.08.56.17.83.27.91-.61,1.9-1.07,2.95-1.38.91-.26,1.85-.41,2.79-.43.95,0,1.88.15,2.79.43,1.19.31,2.3.85,3.28,1.59.32.25.52.63.53,1.04v3.02h.94v-3.02c-.01-.7-.33-1.35-.88-1.78Z"/>
      <path class="cls-1" d="m13.22,30.06c.3-.12.61-.22.91-.31.06-.02.12-.03.19-.05-.04-.03-.08-.07-.12-.11-1.07-.83-2.3-1.43-3.61-1.77-.99-.3-2.02-.46-3.05-.46-1.03.02-2.05.17-3.04.46-1.3.37-2.52.97-3.61,1.76-.55.43-.87,1.09-.88,1.78v3.02h.94v-3.02c0-.4.2-.78.51-1.03,1-.72,2.11-1.26,3.29-1.61.91-.26,1.85-.41,2.79-.42.94,0,1.88.14,2.79.42,1.03.28,2.01.72,2.9,1.32Z"/>
      <path class="cls-1" d="m24.09,32.43c-1.07-.83-2.3-1.43-3.61-1.77-.99-.3-2.02-.46-3.05-.46-1.03.02-2.05.17-3.04.46-1.3.37-2.52.97-3.61,1.76-.55.43-.87,1.09-.88,1.78v3.02h.94v-3.02c0-.4.2-.78.51-1.03,1-.72,2.11-1.26,3.29-1.6.91-.27,1.85-.41,2.79-.43.94,0,1.88.15,2.79.43,1.19.3,2.31.85,3.28,1.59.32.25.52.63.53,1.04v3.02h.94v-3.02c-.01-.7-.34-1.35-.88-1.78Z"/>
      <path class="cls-1" d="m13.79,25.89c0,2.01,1.63,3.65,3.65,3.65s3.65-1.63,3.64-3.65c0-2.01-1.63-3.65-3.65-3.65s-3.65,1.64-3.65,3.65Zm6.35,0c0,1.5-1.21,2.71-2.7,2.7-1.49,0-2.7-1.21-2.7-2.7,0-1.49,1.21-2.7,2.7-2.7s2.7,1.21,2.7,2.7Z"/>
    </g>
  </g>
</svg>