<?xml version="1.0" encoding="UTF-8"?>
<svg id="Capa_2" data-name="Capa 2" xmlns="http://www.w3.org/2000/svg" viewBox="0 0 47.43 40.25">
  <defs>
    <style>
      .cls-1 {
        fill: #fff;
      }
    </style>
  </defs>
  <g id="Capa_1-2" data-name="Capa 1">
    <g>
      <path class="cls-1" d="m1.18,14.68v23.25c0,1.28,1.03,2.31,2.31,2.31h41.62c1.28,0,2.31-1.03,2.31-2.31V13.66H8.36s-.06-.02-.06-.05c0-.03.02-.06.05-.06l38.5-6.12-1.18-7.42L0,7.27l1.18,7.42h0Zm45.09.13v23.12c0,.64-.52,1.16-1.16,1.16H3.5c-.64,0-1.16-.52-1.16-1.16V14.82h43.93Zm-1.56-13.49l.82,5.14-6.26,1,4.32-5.96,1.12-.18Zm-2.74.44l-4.32,5.96-6.91,1.1,4.32-5.95,6.92-1.1Zm-8.53,1.36l-4.32,5.96-6.92,1.1,4.32-5.95,6.91-1.1Zm-8.53,1.36l-4.32,5.96-6.92,1.1,4.32-5.95,6.92-1.11Zm-15.45,2.46l6.92-1.1-4.32,5.95-6.92,1.1,4.32-5.96Zm-1.61.26l-4.32,5.95-1.38.22-.82-5.13,6.52-1.04Z"/>
      <path class="cls-1" d="m38.76,20.6H9.85v8.09h28.9v-8.09Zm-1.16,6.93H11.01v-5.78h26.59v5.78Z"/>
    </g>
  </g>
</svg>