<?xml version="1.0" encoding="UTF-8"?>
<svg id="Capa_2" data-name="Capa 2" xmlns="http://www.w3.org/2000/svg" viewBox="0 0 41.23 37.59">
  <defs>
    <style>
      .cls-1 {
        fill: #fff;
      }
    </style>
  </defs>
  <g id="Capa_1-2" data-name="Capa 1">
    <g>
      <path class="cls-1" d="m39.16,1.21c.49.02.87.43.85.91v25.05c0,.46-.38.84-.85.85h-7.4v6.61l-6.16-6.3-.36-.36H2.06c-.46,0-.84-.35-.85-.81V2.06c.01-.46.39-.84.85-.85h37.1m0-1.21H2.06C.93,0,.01.93,0,2.06v25.05c0,1.13.9,2.05,2.03,2.06h22.71l8.24,8.43v-8.37h6.18c1.13,0,2.05-.93,2.06-2.06V2.12c.01-1.15-.91-2.1-2.06-2.12Z"/>
      <path class="cls-1" d="m27.89,13.94h-6.67v-6.67h-1.21v6.67h-6.67v1.21h6.67v6.67h1.21v-6.67h6.67v-1.21Z"/>
    </g>
  </g>
</svg>