<?xml version="1.0" encoding="UTF-8"?>
<svg id="Capa_2" data-name="Capa 2" xmlns="http://www.w3.org/2000/svg" viewBox="0 0 36.47 39.98">
  <defs>
    <style>
      .cls-1 {
        fill: #fff;
      }
    </style>
  </defs>
  <g id="Capa_1-2" data-name="Capa 1">
    <g>
      <path class="cls-1" d="m23.23,4.26c.01-.95-.75-1.73-1.7-1.75h-.05c-.97,0-1.75.78-1.75,1.75s.78,1.75,1.75,1.75,1.75-.78,1.75-1.75Zm-1,0c0,.41-.33.75-.74.76-.41,0-.75-.33-.76-.74,0-.41.33-.75.74-.76h.04c.4,0,.72.34.72.74Z"/>
      <path class="cls-1" d="m21.48,22.23v-.24h10.99v1h-10.23l-.76-.76Z"/>
      <path class="cls-1" d="m32.47,28.99h-8.08l-.33-1h8.41v1Z"/>
      <path class="cls-1" d="m15.26,16h17.21v1h-16.22l-1-1Z"/>
      <path class="cls-1" d="m.27,8.96c-.4.45-.35,1.14.1,1.53l17.13,17.2,5.48,1.81-1.81-5.46L4.01,6.85l-.02-.02c-.45-.44-1.18-.43-1.62.02h0L.27,8.96Zm20.71,18.82l-2.77-.91c-.5-.66-.36-1.6.29-2.09.56-.42,1.34-.4,1.87.06l.88,2.66-.29.28Zm-4.04-2.07L3.74,12.46l2.23-2.23,13.24,13.26c-1.2.08-2.16,1.02-2.28,2.21ZM1.01,9.63l2.07-2.08s.07-.05.11-.05c.04,0,.07.02.1.04l1.97,1.98-2.23,2.23-1.96-1.97-.02-.02-.02-.02s-.04-.07-.02-.11Z"/>
      <path class="cls-1" d="m34.47,3.5h-7.49v-1c0-1.38-1.12-2.5-2.5-2.5h-5.99c-1.38,0-2.5,1.12-2.5,2.5v1h-7.49c-1.1,0-2,.89-2,2v1.72l1,1v-2.72c0-.55.45-1,1-1h5.5v5.01h14.99v-5.01h5.49c.55,0,1,.45,1,1v32.49c0,.55-.45,1-1,1H8.49c-.55,0-1-.45-1-1v-18.21l-1-1v19.22c0,1.1.89,2,2,2h25.98c1.11,0,2-.89,2-2V5.5c0-1.1-.9-2-2-2Zm-6.49,5h-12.99v-4.01h2v-2c0-.83.67-1.5,1.5-1.5h5.99c.83,0,1.5.67,1.5,1.5v2h2v4.01Z"/>
    </g>
  </g>
</svg>