<?xml version="1.0" encoding="UTF-8"?>
<svg id="Capa_2" data-name="Capa 2" xmlns="http://www.w3.org/2000/svg" viewBox="0 0 36.16 40.56">
  <defs>
    <style>
      .cls-1 {
        fill: #fff;
      }
    </style>
  </defs>
  <g id="Capa_1-2" data-name="Capa 1">
    <path class="cls-1" d="m33.6,21.58s.05-.04.07-.07c.02-.02.03-.05.05-.07.01-.03.02-.05.03-.08,0-.03.02-.06.02-.09,0-.01,0-.03,0-.04v-7.55h1.9c.26,0,.48-.21.48-.47s-.21-.47-.48-.47h-6.18V.47c0-.26-.21-.47-.48-.47s-.48.21-.48.47v1.42H7.61V.47c0-.26-.21-.47-.48-.47s-.48.21-.48.47v12.26H.48c-.26,0-.48.21-.48.47s.21.47.48.47h1.9v7.55s0,.03,0,.04c0,.03,0,.06.02.09,0,.03.02.06.03.08.03.05.07.1.12.14.01,0,.02.02.03.03l14.66,10.02-11.8,8.07c-.22.15-.27.44-.12.66.09.13.23.2.39.2.1,0,.19-.03.27-.08l12.1-8.27,12.1,8.27c.08.05.17.08.27.08.26,0,.48-.21.48-.47,0-.15-.08-.3-.21-.39l-11.8-8.07,14.66-10.02s.02-.02.03-.03ZM7.61,2.83h20.93v8.96H7.61V2.83Zm0,9.91h20.93v3.9c-3.37,1.16-6.9,1.76-10.47,1.76-3.56,0-7.1-.6-10.47-1.76v-3.9Zm-4.28.94h3.33v3.15l-3.32,3.29s0,0,0,0c0,0,0,0,0,0v-6.44Zm14.75,17.38l-11.43-7.81s0,0,0,0c0,0,0,0,0,0,3.69,1.17,7.55,1.76,11.42,1.76,3.87,0,7.73-.59,11.42-1.76,0,0,0,0,0,0,0,0,0,0,0,0l-11.42,7.81Zm0-7.01c-4.95,0-9.85-.99-14.41-2.92,0,0,0,0,0,0,0,0,0,0,0,0l3.63-3.6c3.46,1.2,7.11,1.81,10.77,1.81,3.67,0,7.31-.61,10.78-1.81l3.63,3.6s0,0,0,0c0,0,0,0,0,0-4.55,1.93-9.45,2.93-14.41,2.92Zm14.74-3.93l-3.32-3.29v-3.15h3.33v6.44s0,0,0,0c0,0,0,0,0,0h0Z"/>
  </g>
</svg>