<?xml version="1.0" encoding="UTF-8"?>
<svg id="Capa_2" data-name="Capa 2" xmlns="http://www.w3.org/2000/svg" viewBox="0 0 50.35 22.25">
  <defs>
    <style>
      .cls-1 {
        fill: #fff;
      }
    </style>
  </defs>
  <g id="Capa_1-2" data-name="Capa 1">
    <g>
      <path class="cls-1" d="m30.66,16.12c-.24.11-.5.17-.76.18-.16,0-.32-.04-.45-.12-.1-.07-.18-.15-.23-.26-.11-.12-.28-.2-.45-.19-.12,0-.25.03-.35.11-.12.08-.2.22-.22.37-.03.15,0,.3.08.44.35.52.95.83,1.58.82.45-.01.88-.12,1.29-.31l.47-.21.27.44c.2.3.54.48.9.48h.18c.73-.06,1.4-.46,1.8-1.09.12-.18.26-.35.42-.49.49-.44,1.08-.75,1.71-.91l.7-.21.05.73c.01.57.35,1.09.86,1.34.25.13.53.2.82.2.41,0,.81-.12,1.15-.35.07-.05.13-.1.19-.14.07-.06.14-.12.22-.17l.46-.42.42.41s.1.07.14.1c.29.16.63.24.97.22.16,0,.32,0,.48-.03h.04s1.68,0,1.68,0c.32,0,.59-.26.59-.59s-.26-.59-.59-.59h-.88c-.31,0-.62,0-.94.05l-.7.14-.07-.19-.21-.21c-.26-.23-.6-.37-.95-.38-.12,0-.24.02-.35.05-.32.08-.61.24-.83.49l-.35.35h-.09c-.09.04-.18.06-.27.06h-.69l.12-.68c.08-.33.05-.68-.09-.99-.24-.36-.65-.54-1.07-.49-.18,0-.37.02-.54.05-.99.16-1.92.59-2.69,1.24-.12.12-.22.23-.31.34-.09.11-.19.22-.28.3-.05.05-.11.12-.17.2-.09.11-.17.21-.24.27l-.41.41-.42-.41s-.08-.09-.12-.14h-.03s-.06-.07-.06-.07c-.23-.23-.55-.37-.87-.37-.32.01-.63.1-.91.25Z"/>
      <path class="cls-1" d="m0,0v22.25h50.35V0H0Zm49.18,21.08H1.17V1.17h48.01v19.91Z"/>
      <path class="cls-1" d="m4.68,5.86h10.54v1.17H4.68v-1.17Z"/>
      <path class="cls-1" d="m4.68,10.54h27.52v1.17H4.68v-1.17Z"/>
      <path class="cls-1" d="m45.67,7.61h-11.13v4.1h11.13v-4.1Zm-1.17,2.93h-8.78v-1.75h8.78v1.75Z"/>
    </g>
  </g>
</svg>