<?xml version="1.0" encoding="UTF-8"?>
<svg id="Capa_2" data-name="Capa 2" xmlns="http://www.w3.org/2000/svg" viewBox="0 0 39.55 43.42">
  <defs>
    <style>
      .cls-1 {
        fill: #1d1d1b;
      }
    </style>
  </defs>
  <g id="Capa_1-2" data-name="Capa 1">
    <path class="cls-1" d="m38.99,20.54c-.75.78-2,.8-2.78.05,0,0,0,0,0,0l-14.47-13.99v34.83c.01,1.09-.86,1.98-1.94,1.99-1.09.01-1.98-.86-1.99-1.94V6.6L3.33,20.59c-.78.76-2.03.73-2.78-.05-.75-.78-.73-2.03.05-2.78h0L18.41.55c.09-.07.18-.12.27-.17.1-.09.22-.16.34-.22h.02c.47-.2,1.01-.2,1.48,0h.02c.12.06.23.14.34.22.09.05.18.11.27.17l17.81,17.21c.78.76.8,2,.05,2.78Z"/>
  </g>
</svg>