<?xml version="1.0" encoding="UTF-8"?>
<svg id="Capa_2" data-name="Capa 2" xmlns="http://www.w3.org/2000/svg" viewBox="0 0 136 90.93">
  <defs>
    <style>
      .cls-1 {
        fill: #fff;
      }
    </style>
  </defs>
  <g id="Capa_1-2" data-name="Capa 1">
    <path class="cls-1" d="m65.18,42.2c0,.26.03.55.05.76h3.66c-.03-.26-.03-.47-.03-.55,0-1.05.86-1.67,2.35-1.67,1.83,0,2.72.63,2.72,2.2v.86h-4.21c-3.43,0-4.94,1.54-4.94,3.66,0,2.62,2.09,3.92,5.1,3.92,2.35,0,3.82-.99,4.21-2.82h.03c0,.78-.1,1.96-.18,2.62h3.98v-7.85c0-3.45-2.41-5.28-6.51-5.28s-6.22,1.54-6.22,4.16Zm8.76,4c0,1.57-1.2,2.48-3.27,2.48-1.44,0-2.3-.52-2.3-1.52,0-.73.65-1.23,1.73-1.23h3.84v.26Zm5.88,4.97h3.98v-16.84h-3.98v16.84Zm0-26.49h-7.74v3.66h7.74v-3.66Zm-16.97,5.94c-2.28,0-2.88-.78-2.88-1.99h-3.56c0,2.62,1.91,4.55,6.46,4.55s6.75-1.6,6.75-4.32c0-1.12-.6-2.09-1.44-2.56-.97-.55-2.09-.71-3.69-.86-1.39-.13-2.54-.24-3.19-.39-.73-.18-.94-.6-.94-1.15,0-.89.78-1.49,2.56-1.49,1.96,0,2.59.71,2.61,2.07h3.5c0-3.01-1.94-4.63-6.17-4.63-3.58,0-6.46,1.54-6.46,4.34,0,1.07.5,2.01,1.23,2.54.79.55,2.22.84,4.08.99,1.28.1,2.33.21,3.01.37.68.16.92.52.92.99,0,.94-.73,1.54-2.8,1.54ZM18.38,0L0,18.38v72.56h72.56l17.78-17.78h45.66V0H18.38ZM2.03,19.22L17.78,3.46v6.6L2.03,25.81v-6.6Zm0,8.32l15.75-15.75v7.17l-15.75,15.75v-7.17Zm0,8.89l15.75-15.75v7.17l-15.75,15.75v-7.17Zm0,8.89l15.75-15.75v7.17l-15.75,15.75v-7.17Zm0,8.89l15.75-15.75v7.17l-15.75,15.75v-7.17Zm0,8.89l15.75-15.75v7.17l-15.75,15.75v-7.17Zm0,8.89l15.75-15.75v7.17l-15.75,15.75v-7.17Zm0,8.89l15.75-15.75v6.6l-15.75,15.75v-6.6Zm1.43,8.03l15.75-15.75h6.6l-15.75,15.75H3.46Zm8.32,0l15.75-15.75h7.17l-15.75,15.75h-7.17Zm8.89,0l15.75-15.75h7.17l-15.75,15.75h-7.17Zm8.89,0l15.75-15.75h7.17l-15.75,15.75h-7.17Zm8.89,0l15.75-15.75h7.17l-15.75,15.75h-7.17Zm8.89,0l15.75-15.75h7.17l-15.75,15.75h-7.17Zm8.89,0l15.75-15.75h7.17l-15.75,15.75h-7.17Zm15.49,0h-6.6l15.75-15.75h6.6l-15.75,15.75Zm62.25-17.78H19.81V2.03h114.16v69.1Zm-100.78-24.4c0,2.88,1.44,4.66,5.47,4.66,1.07,0,2.17-.21,2.51-.29v-3.01c-.44.1-1.26.18-1.8.18-1.57,0-2.2-.42-2.2-1.75v-5.18h4.13v-3.09h-4.13v-2.93h-3.27l-.18,1.8c-.08.78-.29,1.12-.89,1.12h-1.54v3.09h1.91v5.39Zm15.48-13.55c3.69,0,6.15-1.73,6.23-4.68h-3.5c-.1,1.26-1.1,1.8-2.64,1.8-1.78,0-2.85-.92-3.03-3.03h9.18v-1.12c0-4.24-2.54-6.3-6.15-6.3-4.37,0-7.04,2.54-7.04,6.8s2.67,6.54,6.96,6.54Zm.08-10.46c1.65,0,2.64.76,2.64,2.22v.21h-5.57c.31-1.7,1.26-2.43,2.93-2.43Zm-6.29,39.63h2.43l.46,1.14h.7l-1.98-4.69h-.71l-1.98,4.69h.63l.46-1.14Zm1.22-3h.01l1.02,2.56h-2.08l1.04-2.56Zm-10.5-26.38h3.98v-9.83h4.11v-3.09h-4.11v-.97c0-1.15.63-1.75,1.94-1.75.92,0,1.62.21,1.96.31v-2.93c-.34-.13-1.46-.42-2.77-.42-2.93,0-5.1,1.52-5.1,4.5v1.26h-1.91v3.09h1.91v9.83Zm36.38,25.83h-.6v4.69h3.07v-.54h-2.47v-4.15Zm-22.52-23.43h-3.98v2.27h3.98v-2.27Zm-3.98,15.8h3.98v-12.07h-3.98v12.07Zm46.84-3.77h-4.36v3.77h4.36v-3.77Zm-30.83,13.83c-.31-.16-.8-.24-1.27-.3-.41-.06-.97-.14-1.2-.26-.2-.1-.31-.28-.31-.58,0-.51.54-.86,1.3-.86.81,0,1.26.36,1.26,1.18h.56c0-1.08-.52-1.69-1.83-1.69-1.12,0-1.89.58-1.89,1.42,0,.44.19.76.46.92.26.16.77.27,1.26.33.41.06.94.11,1.2.22.24.1.37.26.37.56,0,.45-.3.87-1.38.87-1,0-1.34-.48-1.34-1.16h-.56c0,.85.39,1.67,1.9,1.67s1.98-.71,1.98-1.42c0-.43-.19-.76-.51-.91Zm-.34-10.06l5.34-12.92h-4.08l-3.4,9.28h-.05l-3.32-9.28h-4.63l5.41,12.92h4.73Zm-17.59,8.96c0-.81-.58-1.33-1.76-1.33h-1.95v4.69h.6v-1.95h1.47c.78,0,1,.32,1,.82v1.13h.61v-1.13c0-.58-.21-1.01-.88-1.08h0c.64-.09.91-.53.91-1.14Zm-1.77.96h-1.34v-1.75h1.35c.79,0,1.18.32,1.18.84,0,.55-.33.91-1.18.91Zm10.58,1.6h-.01l-2.55-3.89h-.96v4.69h.57v-4.26h.01l2.8,4.26h.71v-4.69h-.57v3.89Zm14.77-3.89h-3.71v.53h1.55v4.16h.6v-4.16h1.55v-.53Zm-11.71,0h-1.71v4.69h1.86c1.35,0,2.19-.88,2.19-2.35s-.89-2.34-2.34-2.34Zm.14,4.15h-1.25v-3.61h1.13c1.07,0,1.73.68,1.73,1.8s-.61,1.81-1.6,1.81Zm23.53-4.15h-.79l-2.85,2.82h-.01v-2.82h-.6v4.69h.6v-1.18l1.01-.94,1.94,2.13h.83l-2.33-2.52,2.2-2.17Zm-40.81,2.24h0c.56-.08.83-.47.83-1.01,0-.75-.51-1.23-1.6-1.23h-1.91v4.69h2.08c1.15,0,1.6-.53,1.6-1.35,0-.61-.36-1.04-1.01-1.1Zm-2.08-1.71h1.31c.74,0,1.05.31,1.05.78s-.3.76-.96.76h-1.39v-1.53Zm1.46,3.64h-1.46v-1.66h1.43c.68,0,1.07.31,1.07.78,0,.54-.24.88-1.04.88Zm30.64-4.16l-1.98,4.69h.63l.46-1.14h2.43l.46,1.14h.7l-1.98-4.69h-.71Zm-.71,3.11l1.04-2.56h.01l1.02,2.56h-2.08Z"/>
  </g>
</svg>