<?xml version="1.0" encoding="utf-8"?>
<!-- Generator: Adobe Illustrator 27.0.1, SVG Export Plug-In . SVG Version: 6.00 Build 0)  -->
<svg version="1.1" id="Capa_1" xmlns="http://www.w3.org/2000/svg" xmlns:xlink="http://www.w3.org/1999/xlink" x="0px" y="0px"
	 viewBox="0 0 844.62 562.59" style="enable-background:new 0 0 844.62 562.59;" xml:space="preserve">
<style type="text/css">
	.st0{fill:#FFFFFF;}
</style>
<g>
	<g>
		<path class="st0" d="M313.69,0.18l13.7,0l26.66,83.54h0.46l25.38-82.49l13.09,0l25.14,82.47h0.46l26.6-83.55l12.78,0
			l-33.14,100.14l-13.7,0l-24.83-80.49l-0.46,0l-25.23,80.51l-13.85,0L313.69,0.18z"/>
		<path class="st0" d="M466.71,0.13l66.35-0.02l0,11.57l-53.57,0.02l0.01,33.48l43.37-0.02l0,9.44l-43.37,0.02l0.01,34.09
			l54.93-0.02l0,11.57l-67.72,0.02L466.71,0.13z"/>
		<path class="st0" d="M646.15,75.85l-51.89,0.02l-9.88,24.35l-13.39,0L613.25,0.08l15.22,0l42.34,100.12l-14.91,0.01L646.15,75.85z
			 M642.34,66.42l-21.78-54.62l-0.3,0l-22.2,54.64L642.34,66.42z"/>
		<path class="st0" d="M679.57,0.06l41.54-0.01c25.11-0.01,37.59,11.1,37.6,28.44c0,13.09-5.62,22.37-19.32,24.05v0.3
			c14.15,1.67,18.72,10.65,18.73,23.12l0.01,24.2l-13.09,0l-0.01-24.2c0-10.65-4.72-17.5-21.31-17.49l-31.35,0.01l0.01,41.7
			l-12.78,0L679.57,0.06z M720.98,49.04c18.26-0.01,25.26-7.77,25.25-19.49c0-11.11-8.22-17.95-25.11-17.95l-28.76,0.01l0.01,37.43
			L720.98,49.04z"/>
		<path class="st0" d="M774.84,0.02L841.19,0l0,11.57l-53.57,0.02l0.01,33.48l43.37-0.02l0,9.44l-43.37,0.02l0.01,34.09l54.93-0.02
			l0,11.57l-67.72,0.02L774.84,0.02z"/>
		<path class="st0" d="M0,115.47l39.87-0.01c24.2-0.01,38.35,12.92,38.36,33.77c0.01,21.3-13.53,33.33-35.9,33.34l-29.52,0.01
			l0.01,33.02l-12.78,0L0,115.47z M41.26,172.83c15.37,0,24.5-7.62,24.49-22.83c-0.01-14.91-9.44-22.97-26.33-22.97l-26.63,0.01
			l0.02,45.8L41.26,172.83z"/>
		<path class="st0" d="M147.69,191.2l-51.89,0.02l-9.88,24.35l-13.39,0l42.27-100.15l15.22-0.01l42.34,100.12l-14.91,0L147.69,191.2
			z M143.89,181.77l-21.78-54.62h-0.3l-22.2,54.64L143.89,181.77z"/>
		<path class="st0" d="M174.2,181.45l11.87,0c0,14.46,7.31,24.65,28.62,24.64c22.98-0.01,29.37-8.99,29.36-18.58
			c0-6.39-2.74-9.89-7.92-12.02c-5.48-2.28-16.89-3.49-25.57-4.71c-10.35-1.21-21.31-3.64-26.79-6.99
			c-5.78-3.5-9.89-10.19-9.9-19.63c-0.01-17.8,16.42-30.29,40.32-30.3c28-0.01,39.11,12.92,39.12,36.05l-11.87,0
			c-0.01-17.5-9.75-25.11-26.94-25.1c-16.28,0.01-27.85,7.31-27.84,18.27c0,6.39,2.44,10.19,6.7,12.32
			c4.87,2.43,16.89,4.25,25.57,5.47c10.04,1.37,20.54,3.04,27.09,6.38c6.7,3.35,10.81,10.34,10.81,19.47
			c0,15.22-9.42,30.29-42.14,30.3C182.58,217.06,174.2,199.56,174.2,181.45z"/>
		<path class="st0" d="M266.46,181.42l11.87,0c0,14.46,7.31,24.65,28.62,24.64c22.98-0.01,29.37-8.99,29.36-18.58
			c0-6.39-2.74-9.89-7.92-12.02c-5.48-2.28-16.89-3.49-25.57-4.71c-10.35-1.21-21.31-3.64-26.79-6.99
			c-5.78-3.5-9.89-10.19-9.9-19.63c-0.01-17.8,16.42-30.29,40.32-30.3c28-0.01,39.11,12.92,39.12,36.05l-11.87,0
			c-0.01-17.5-9.75-25.11-26.94-25.1c-16.28,0.01-27.85,7.31-27.84,18.27c0,6.39,2.44,10.19,6.7,12.32
			c4.87,2.43,16.89,4.25,25.57,5.47c10.04,1.37,20.54,3.04,27.09,6.38c6.7,3.35,10.81,10.34,10.81,19.47
			c0,15.22-9.42,30.29-42.14,30.3C274.84,217.03,266.46,199.53,266.46,181.42z"/>
		<path class="st0" d="M363.44,115.34l12.78,0l0.04,100.13l-12.78,0L363.44,115.34z"/>
		<path class="st0" d="M390.09,164.94c-0.01-31.5,22.2-51.14,50.5-51.15c28.3-0.01,50.53,19.61,50.54,51.11
			c0.01,32.11-22.2,52.05-50.5,52.06C412.32,216.98,390.1,197.05,390.09,164.94z M478.35,164.91c-0.01-24.5-17.21-39.56-37.75-39.55
			c-20.54,0.01-37.73,15.08-37.73,39.58c0.01,24.96,17.21,40.47,37.75,40.47C461.17,205.4,478.36,189.87,478.35,164.91z"/>
		<path class="st0" d="M504.78,115.29l20.54-0.01l54.36,83.07h0.3l-0.03-83.09l12.17,0l0.04,100.13l-15.07,0l-59.84-90.83l-0.3,0
			l0.03,90.85l-12.17,0L504.78,115.29z"/>
		<path class="st0" d="M676.12,191.02l-51.89,0.02l-9.88,24.35l-13.39,0l42.27-100.15l15.22,0l42.34,100.12l-14.91,0L676.12,191.02z
			 M672.31,181.58l-21.78-54.62h-0.3l-22.2,54.64L672.31,181.58z"/>
		<path class="st0" d="M720.42,126.63l-33.17,0.01l0-11.41l79.13-0.03l0,11.41l-33.17,0.01l0.03,88.72l-12.78,0L720.42,126.63z"/>
		<path class="st0" d="M774.88,115.2l66.35-0.02l0,11.56l-53.57,0.02l0.01,33.48l43.37-0.02l0,9.44l-43.37,0.02l0.01,34.09
			l54.93-0.02l0,11.57l-67.72,0.02L774.88,115.2z"/>
		<path class="st0" d="M438.85,306.28l-51.89,0.02l-9.88,24.35l-13.39,0l42.27-100.15l15.22,0l42.34,100.12l-14.91,0L438.85,306.28z
			 M435.04,296.84l-21.78-54.62h-0.3l-22.2,54.64L435.04,296.84z"/>
		<path class="st0" d="M472.27,230.48l40.78-0.01c23.28-0.01,34.09,10.18,34.1,26.16c0,11.56-5.78,19.94-17.64,21.46v0.15
			c13.85,1.21,21.46,10.34,21.46,23.43c0.01,17.65-9.73,28.92-34.23,28.92l-44.44,0.02L472.27,230.48z M514.74,274.44
			c14.15,0,20.54-6.25,20.54-16.14c0-10.04-6.55-16.59-22.38-16.58l-27.85,0.01l0.01,32.72L514.74,274.44z M516.28,319.33
			c17.2-0.01,22.21-7.31,22.21-18.88c0-10.04-8.22-16.58-22.83-16.58l-30.59,0.01l0.01,35.46L516.28,319.33z"/>
		<path class="st0" d="M558.95,280.06c-0.01-31.5,22.2-51.14,50.5-51.15c28.3-0.01,50.53,19.61,50.54,51.11
			c0.01,32.11-22.2,52.05-50.5,52.06C581.18,332.09,558.96,312.17,558.95,280.06z M647.21,280.03
			c-0.01-24.5-17.21-39.56-37.75-39.55c-20.54,0.01-37.73,15.08-37.73,39.58c0.01,24.96,17.21,40.47,37.75,40.46
			C630.03,320.51,647.22,304.99,647.21,280.03z"/>
		<path class="st0" d="M672.65,293.72l-0.02-63.31l12.78,0l0.02,63.31c0.01,16.43,11.27,26.78,30.14,26.77
			c18.87-0.01,30.13-10.36,30.12-26.79l-0.02-63.31l11.57,0l0.02,63.31c0.01,22.83-15.96,38.35-42.14,38.36
			C688.8,332.06,672.66,316.54,672.65,293.72z"/>
		<path class="st0" d="M798.66,241.78l-33.17,0.01l0-11.41l79.13-0.03l0,11.41l-33.17,0.01l0.03,88.72l-12.78,0L798.66,241.78z"/>
		<path class="st0" d="M30.53,345.81l21.3-0.01l31.07,82.92h0.15l31.47-82.95l20.85-0.01l0.04,100.13l-12.94,0l0.27-91.46h-0.3
			l-34.66,91.47l-10.35,0l-34.73-91.44h-0.3l0.34,91.46l-12.17,0L30.53,345.81z"/>
		<path class="st0" d="M219.46,421.53l-51.89,0.02l-9.88,24.35l-13.39,0l42.27-100.15l15.22,0l42.34,100.12l-14.91,0.01
			L219.46,421.53z M215.65,412.09l-21.78-54.62h-0.3l-22.2,54.64L215.65,412.09z"/>
		<path class="st0" d="M252.88,345.73l41.54-0.01c25.11-0.01,37.59,11.1,37.6,28.44c0,13.09-5.62,22.37-19.32,24.05v0.3
			c14.15,1.67,18.72,10.65,18.73,23.12l0.01,24.2l-13.09,0l-0.01-24.2c0-10.65-4.72-17.5-21.31-17.49l-31.35,0.01l0.01,41.7
			l-12.78,0L252.88,345.73z M294.29,394.72c18.26-0.01,25.26-7.77,25.25-19.49c0-11.11-8.22-17.95-25.12-17.95l-28.76,0.01
			l0.01,37.44L294.29,394.72z"/>
		<path class="st0" d="M348.15,345.7l12.78,0l0.02,60.11h0.3l60.7-60.13l16.89-0.01l-47,46.28l49.63,53.85l-17.65,0.01l-41.41-45.33
			l-21.45,20.09l0.01,25.26l-12.78,0L348.15,345.7z"/>
		<path class="st0" d="M450.03,345.66l66.35-0.02l0,11.57l-53.57,0.02l0.01,33.48l43.37-0.02l0,9.44l-43.37,0.02l0.01,34.09
			l54.93-0.02l0,11.57l-67.72,0.02L450.03,345.66z"/>
		<path class="st0" d="M555.61,357.04l-33.17,0.01l0-11.41l79.13-0.03l0,11.41l-33.17,0.01l0.03,88.72l-12.78,0L555.61,357.04z"/>
		<path class="st0" d="M610.34,345.61l12.78,0l0.04,100.13l-12.78,0L610.34,345.61z"/>
		<path class="st0" d="M641.77,345.6l20.54-0.01l54.36,83.07h0.3l-0.03-83.09l12.17,0l0.04,100.13l-15.07,0l-59.84-90.83h-0.3
			l0.03,90.85l-12.17,0L641.77,345.6z"/>
		<path class="st0" d="M742.72,396.54c-0.01-31.35,21.89-52.51,50.35-52.52c25.26-0.01,43.37,13.53,43.38,36.35
			c0,1.22,0,3.5-0.15,5.94l-11.87,0c0.15-1.98,0.15-3.81,0.15-5.33c-0.01-15.98-13.4-25.41-31.51-25.4
			c-21.15,0.01-37.58,16.14-37.57,41.1c0.01,24.2,16.75,39.56,36.84,39.55c19.93-0.01,32.26-11.27,32.25-26.34l0-2.89l-35.15,0.01
			l0-9.44l47.94-0.02l0.02,48.09l-12.02,0c0.46-4.11,0.91-11.26,1.21-18.57h-0.15c-3.04,11.41-14.15,20.09-34.08,20.1
			C763.89,447.21,742.73,427.58,742.72,396.54z"/>
		<path class="st0" d="M221.06,551.01l0,10.8c-0.61,0.15-1.98,0.3-3.5,0.31c-8.98,0-18.11-3.34-27.09-10.03
			c-8.06,6.7-17.8,10.51-29.37,10.51c-21.15,0.01-34.7-12.77-34.71-31.18c-0.01-15.07,10.03-26.63,26.01-29.68
			c-3.05-7.15-4.42-13.54-4.42-18.26c-0.01-15.07,9.88-24.05,24.64-24.05c14.61,0,23.89,9.12,23.9,22.21
			c0,14-10.95,24.5-27.99,26.64c5.94,10.04,14.62,20.69,22.23,28.14c6.39-8.68,11.1-19.79,14.14-31.81l11.26,0
			c-3.19,13.54-9.12,27.85-17.33,38.66c7,5.17,13.85,7.91,20.09,7.91C219.39,551.16,220.15,551.16,221.06,551.01z M161.87,551.64
			c7.76,0,14.76-2.44,20.69-6.7c-10.05-10.19-19.49-22.67-25.58-33.92h-0.46c-11.11,1.83-17.95,9.9-17.95,20.4
			C138.58,543.12,147.72,551.64,161.87,551.64z M160.02,483.46c0,5.78,1.53,10.65,3.96,16.13c14-1.98,21.3-8.99,21.3-17.66
			c0-6.7-4.87-11.56-12.63-11.56C165.34,470.37,160.02,475.4,160.02,483.46z"/>
		<path class="st0" d="M260.77,526.95l11.87,0c0.01,14.46,7.31,24.65,28.62,24.64c22.98-0.01,29.37-8.99,29.36-18.58
			c0-6.39-2.74-9.89-7.92-12.02c-5.48-2.28-16.89-3.49-25.57-4.71c-10.35-1.21-21.31-3.64-26.79-6.99c-5.78-3.5-9.9-10.19-9.9-19.63
			c-0.01-17.8,16.42-30.29,40.32-30.3c28-0.01,39.11,12.92,39.12,36.05l-11.87,0c-0.01-17.5-9.75-25.11-26.94-25.1
			c-16.28,0.01-27.85,7.31-27.84,18.27c0,6.39,2.44,10.19,6.7,12.32c4.87,2.43,16.89,4.25,25.57,5.47
			c10.04,1.37,20.54,3.04,27.09,6.38c6.7,3.35,10.81,10.34,10.81,19.47c0.01,15.22-9.42,30.29-42.14,30.3
			C269.15,562.55,260.77,545.06,260.77,526.95z"/>
		<path class="st0" d="M357.28,460.87l39.87-0.01c24.2-0.01,38.35,12.92,38.36,33.77c0.01,21.3-13.53,33.33-35.9,33.34l-29.52,0.01
			L370.1,561l-12.78,0L357.28,460.87z M398.54,518.23c15.37,0,24.5-7.62,24.49-22.83c-0.01-14.91-9.44-22.97-26.33-22.97
			l-26.63,0.01l0.02,45.8L398.54,518.23z"/>
		<path class="st0" d="M443.49,510.45c-0.01-31.5,22.2-51.14,50.5-51.15c28.3-0.01,50.53,19.61,50.54,51.11
			c0.01,32.11-22.2,52.05-50.5,52.06C465.72,562.49,443.5,542.56,443.49,510.45z M531.75,510.42c-0.01-24.5-17.21-39.56-37.75-39.55
			c-20.54,0.01-37.73,15.08-37.72,39.58c0.01,24.96,17.21,40.47,37.75,40.46C514.57,550.9,531.76,535.38,531.75,510.42z"/>
		<path class="st0" d="M558.18,460.8l41.54-0.01c25.11-0.01,37.59,11.1,37.6,28.44c0,13.09-5.62,22.37-19.32,24.05v0.3
			c14.15,1.67,18.72,10.65,18.72,23.12l0.01,24.2l-13.09,0l-0.01-24.2c0-10.65-4.72-17.5-21.31-17.49l-31.35,0.01l0.01,41.7
			l-12.78,0L558.18,460.8z M599.58,509.79c18.26-0.01,25.26-7.77,25.25-19.49c0-11.11-8.22-17.95-25.12-17.95l-28.76,0.01
			l0.01,37.44L599.58,509.79z"/>
		<path class="st0" d="M675.49,472.17l-33.17,0.01l0-11.41l79.13-0.03l0,11.41l-33.17,0.01l0.03,88.72l-12.78,0L675.49,472.17z"/>
		<path class="st0" d="M725.8,526.79l11.87,0c0,14.46,7.31,24.65,28.62,24.64c22.98-0.01,29.37-8.99,29.36-18.58
			c0-6.39-2.74-9.89-7.92-12.02c-5.48-2.28-16.89-3.49-25.57-4.71c-10.35-1.21-21.31-3.65-26.79-6.99
			c-5.78-3.5-9.89-10.19-9.9-19.63c-0.01-17.8,16.42-30.29,40.32-30.3c28-0.01,39.11,12.92,39.12,36.05l-11.87,0
			c-0.01-17.5-9.75-25.11-26.94-25.1c-16.28,0.01-27.85,7.31-27.84,18.27c0,6.39,2.44,10.19,6.7,12.32
			c4.87,2.43,16.89,4.25,25.57,5.47c10.04,1.37,20.54,3.04,27.09,6.38c6.7,3.35,10.81,10.34,10.81,19.47
			c0.01,15.22-9.42,30.29-42.14,30.3C734.18,562.39,725.8,544.9,725.8,526.79z"/>
		<path class="st0" d="M822.2,543.49l13.09,0l0.01,17.35l-13.09,0L822.2,543.49z"/>
	</g>
</g>
</svg>
