<?xml version="1.0" encoding="utf-8"?>
<!-- Generator: Adobe Illustrator 27.0.1, SVG Export Plug-In . SVG Version: 6.00 Build 0)  -->
<svg version="1.1" id="Capa_1" xmlns="http://www.w3.org/2000/svg" xmlns:xlink="http://www.w3.org/1999/xlink" x="0px" y="0px"
	 viewBox="0 0 1093.63 448.71" style="enable-background:new 0 0 1093.63 448.71;" xml:space="preserve">
<style type="text/css">
	.st0{fill:#FFFFFF;}
</style>
<g>
	<g>
		<path class="st0" d="M0,1.52h13.7l26.63,83.54h0.46L66.2,2.59h13.09l25.11,82.48h0.46l26.63-83.54h12.78l-33.17,100.13h-13.7
			l-24.8-80.5h-0.46l-25.26,80.5H33.02L0,1.52z"/>
		<path class="st0" d="M153.02,1.52h66.35v11.57h-53.57v33.48h43.37V56h-43.37v34.09h54.94v11.57h-67.72V1.52z"/>
		<path class="st0" d="M265.63,1.52h12.78v88.57h52.65v11.57h-65.44V1.52z"/>
		<path class="st0" d="M340.12,1.52h12.78v100.13h-12.78V1.52z"/>
		<path class="st0" d="M371.54,1.52h12.78v60.11h0.3l60.72-60.11h16.89l-47.02,46.26l49.61,53.87h-17.65L405.78,56.3l-21.46,20.09
			v25.26h-12.78V1.52z"/>
		<path class="st0" d="M473.42,1.52h66.35v11.57h-53.57v33.48h43.37V56h-43.37v34.09h54.94v11.57h-67.72V1.52z"/>
		<path class="st0" d="M610.38,12.93H577.2V1.52h79.13v11.41h-33.17v88.72h-12.78V12.93z"/>
		<path class="st0" d="M655.68,51.13C655.68,19.63,677.9,0,706.2,0s50.52,19.63,50.52,51.13c0,32.11-22.22,52.04-50.52,52.04
			S655.68,83.24,655.68,51.13z M743.94,51.13c0-24.5-17.2-39.57-37.74-39.57s-37.74,15.07-37.74,39.57
			c0,24.96,17.2,40.48,37.74,40.48S743.94,76.09,743.94,51.13z"/>
		<path class="st0" d="M795.07,1.52h14.15l35,87.81h0.46l34.54-87.81h13.54l-41.39,100.13h-15.07L795.07,1.52z"/>
		<path class="st0" d="M901.62,1.52h12.78v100.13h-12.78V1.52z"/>
		<path class="st0" d="M933.04,1.52h40.78c23.28,0,34.09,10.2,34.09,26.17c0,11.57-5.78,19.93-17.65,21.46v0.15
			c13.85,1.22,21.46,10.35,21.46,23.44c0,17.65-9.74,28.91-34.24,28.91h-44.44V1.52z M975.5,45.5c14.15,0,20.54-6.24,20.54-16.13
			c0-10.04-6.54-16.59-22.37-16.59h-27.85V45.5H975.5z M977.02,90.39c17.2,0,22.22-7.3,22.22-18.87c0-10.04-8.22-16.59-22.83-16.59
			h-30.59v35.46H977.02z"/>
		<path class="st0" d="M1025.91,1.52h66.35v11.57h-53.57v33.48h43.37V56h-43.37v34.09h54.94v11.57h-67.72V1.52z"/>
		<path class="st0" d="M8.83,116.7h66.35v11.57H21.61v33.48h43.37v9.44H21.61v34.09h54.94v11.57H8.83V116.7z"/>
		<path class="st0" d="M81.23,116.7h14.15l35,87.81h0.46l34.54-87.81h13.54l-41.39,100.13h-15.07L81.23,116.7z"/>
		<path class="st0" d="M187.52,116.7h66.35v11.57H200.3v33.48h43.37v9.44H200.3v34.09h54.94v11.57h-67.72V116.7z"/>
		<path class="st0" d="M264.64,116.7h41.54c25.11,0,37.59,11.11,37.59,28.46c0,13.09-5.63,22.37-19.33,24.04v0.3
			c14.15,1.67,18.72,10.65,18.72,23.13v24.2h-13.09v-24.2c0-10.65-4.72-17.5-21.3-17.5h-31.35v41.7h-12.78V116.7z M306.03,165.7
			c18.26,0,25.26-7.76,25.26-19.48c0-11.11-8.22-17.96-25.11-17.96h-28.76v37.44H306.03z"/>
		<path class="st0" d="M384.84,175.89l-40.17-59.2h15.67l31.65,48.7h0.3l31.65-48.7h14l-40.33,59.2v40.94h-12.78V175.89z"/>
		<path class="st0" d="M446.55,116.7h36.52c30.89,0,49.91,18.87,49.91,49.91c0,31.35-17.8,50.22-46.72,50.22h-39.72V116.7z
			 M485.96,205.26c21.3,0,34.24-14.3,34.24-38.65c0-23.89-14-38.35-36.83-38.35h-24.04v77H485.96z"/>
		<path class="st0" d="M607.12,192.48h-51.89l-9.89,24.35h-13.39l42.3-100.13h15.22l42.3,100.13h-14.91L607.12,192.48z
			 M603.32,183.05l-21.76-54.63h-0.3l-22.22,54.63H603.32z"/>
		<path class="st0" d="M656.62,175.89l-40.17-59.2h15.67l31.65,48.7h0.3l31.65-48.7h14l-40.33,59.2v40.94h-12.78V175.89z"/>
		<path class="st0" d="M75.63,307.66H23.74l-9.89,24.35H0.46l42.31-100.13h15.22l42.31,100.13H85.37L75.63,307.66z M71.83,298.22
			l-21.76-54.63h-0.3l-22.22,54.63H71.83z"/>
		<path class="st0" d="M102.14,297.92h11.87c0,14.46,7.3,24.65,28.61,24.65c22.98,0,29.37-8.98,29.37-18.57
			c0-6.39-2.74-9.89-7.91-12.02c-5.48-2.28-16.89-3.5-25.57-4.72c-10.35-1.22-21.3-3.65-26.78-7c-5.78-3.5-9.89-10.2-9.89-19.63
			c0-17.8,16.44-30.28,40.33-30.28c28,0,39.11,12.93,39.11,36.07H169.4c0-17.5-9.74-25.11-26.94-25.11
			c-16.28,0-27.85,7.3-27.85,18.26c0,6.39,2.43,10.2,6.7,12.33c4.87,2.43,16.89,4.26,25.57,5.48c10.04,1.37,20.54,3.04,27.09,6.39
			c6.7,3.35,10.8,10.35,10.8,19.48c0,15.22-9.43,30.28-42.15,30.28C110.51,333.53,102.14,316.03,102.14,297.92z"/>
		<path class="st0" d="M232.55,231.88h12.78v100.13h-12.78V231.88z"/>
		<path class="st0" d="M263.97,231.88h64.98v11.57h-52.2v35.3h44.74v9.74h-44.74v43.52h-12.78V231.88z"/>
		<path class="st0" d="M373.69,231.88h12.78v100.13h-12.78V231.88z"/>
		<path class="st0" d="M428.26,243.29h-33.17v-11.41h79.13v11.41h-33.17v88.72h-12.78V243.29z"/>
		<path class="st0" d="M517.73,231.88h12.78v100.13h-12.78V231.88z"/>
		<path class="st0" d="M545.49,297.92h11.87c0,14.46,7.3,24.65,28.61,24.65c22.98,0,29.37-8.98,29.37-18.57
			c0-6.39-2.74-9.89-7.91-12.02c-5.48-2.28-16.89-3.5-25.57-4.72c-10.35-1.22-21.3-3.65-26.78-7c-5.78-3.5-9.89-10.2-9.89-19.63
			c0-17.8,16.43-30.28,40.33-30.28c28,0,39.11,12.93,39.11,36.07h-11.87c0-17.5-9.74-25.11-26.93-25.11
			c-16.28,0-27.85,7.3-27.85,18.26c0,6.39,2.43,10.2,6.7,12.33c4.87,2.43,16.89,4.26,25.57,5.48c10.04,1.37,20.54,3.04,27.09,6.39
			c6.7,3.35,10.8,10.35,10.8,19.48c0,15.22-9.43,30.28-42.15,30.28C553.86,333.53,545.49,316.03,545.49,297.92z"/>
		<path class="st0" d="M742.1,307.66H690.2l-9.89,24.35h-13.39l42.31-100.13h15.22l42.31,100.13h-14.91L742.1,307.66z
			 M738.29,298.22l-21.76-54.63h-0.3l-22.22,54.63H738.29z"/>
		<path class="st0" d="M8.83,347.05h64.98v11.57h-52.2v35.3h44.74v9.74H21.61v43.52H8.83V347.05z"/>
		<path class="st0" d="M82.86,347.05h66.35v11.57H95.64v33.48h43.37v9.43H95.64v34.09h54.94v11.57H82.86V347.05z"/>
		<path class="st0" d="M155.21,413.1h11.87c0,14.46,7.3,24.65,28.61,24.65c22.98,0,29.37-8.98,29.37-18.57
			c0-6.39-2.74-9.89-7.91-12.02c-5.48-2.28-16.89-3.5-25.57-4.72c-10.35-1.22-21.3-3.65-26.78-7c-5.78-3.5-9.89-10.2-9.89-19.63
			c0-17.8,16.44-30.28,40.33-30.28c28,0,39.11,12.93,39.11,36.07h-11.87c0-17.5-9.74-25.11-26.94-25.11
			c-16.28,0-27.85,7.3-27.85,18.26c0,6.39,2.43,10.2,6.7,12.33c4.87,2.43,16.89,4.26,25.57,5.48c10.04,1.37,20.54,3.04,27.09,6.39
			c6.7,3.35,10.8,10.35,10.8,19.48c0,15.22-9.43,30.28-42.15,30.28C163.58,448.71,155.21,431.21,155.21,413.1z"/>
		<path class="st0" d="M273.13,358.46h-33.17v-11.41h79.13v11.41h-33.17v88.72h-12.78V358.46z"/>
		<path class="st0" d="M327.87,347.05h12.78v100.13h-12.78V347.05z"/>
		<path class="st0" d="M349.26,347.05h14.15l35,87.81h0.46l34.54-87.81h13.54l-41.39,100.13H390.5L349.26,347.05z"/>
		<path class="st0" d="M510.41,422.83h-51.89l-9.89,24.35h-13.39l42.3-100.13h15.22l42.3,100.13h-14.91L510.41,422.83z
			 M506.61,413.4l-21.76-54.63h-0.3l-22.22,54.63H506.61z"/>
		<path class="st0" d="M543.86,347.05h12.78v88.57h52.65v11.57h-65.44V347.05z"/>
		<path class="st0" d="M621.95,429.83h13.09v17.35h-13.09V429.83z"/>
	</g>
</g>
</svg>
