<?xml version="1.0" encoding="utf-8"?>
<!-- Generator: Adobe Illustrator 27.0.1, SVG Export Plug-In . SVG Version: 6.00 Build 0)  -->
<svg version="1.1" id="Capa_1" xmlns="http://www.w3.org/2000/svg" xmlns:xlink="http://www.w3.org/1999/xlink" x="0px" y="0px"
	 viewBox="0 0 1343.74 447.18" style="enable-background:new 0 0 1343.74 447.18;" xml:space="preserve">
<style type="text/css">
	.st0{fill:#FFFFFF;}
</style>
<g>
	<path class="st0" d="M0,0h13.7l26.63,83.54h0.46L66.2,1.07h13.09l25.11,82.48h0.46L131.48,0h12.78l-33.17,100.13h-13.7l-24.8-80.5
		h-0.46l-25.26,80.5H33.02L0,0z"/>
	<path class="st0" d="M153.02,0h66.35v11.57h-53.57v33.48h43.37v9.43h-43.37v34.09h54.94v11.57h-67.72V0z"/>
	<path class="st0" d="M332.44,75.78h-51.89l-9.89,24.35h-13.39L299.57,0h15.22l42.31,100.13h-14.91L332.44,75.78z M328.63,66.35
		l-21.76-54.63h-0.3l-22.22,54.63H328.63z"/>
	<path class="st0" d="M365.88,0h41.54c25.11,0,37.59,11.11,37.59,28.46c0,13.09-5.63,22.37-19.33,24.04v0.3
		c14.15,1.67,18.72,10.65,18.72,23.13v24.2h-13.09v-24.2c0-10.65-4.72-17.5-21.3-17.5h-31.35v41.7h-12.78V0z M407.27,49
		c18.26,0,25.26-7.76,25.26-19.48c0-11.11-8.22-17.96-25.11-17.96h-28.76V49H407.27z"/>
	<path class="st0" d="M461.16,0h66.35v11.57h-53.57v33.48h43.37v9.43h-43.37v34.09h54.94v11.57h-67.72V0z"/>
</g>
<g>
	<path class="st0" d="M321.76,190.96h-51.89l-9.89,24.35h-13.39l42.31-100.13h15.22l42.31,100.13H331.5L321.76,190.96z
		 M317.96,181.53l-21.76-54.63h-0.3l-22.22,54.63H317.96z"/>
	<path class="st0" d="M389.78,115.18h36.52c30.89,0,49.91,18.87,49.91,49.91c0,31.35-17.8,50.22-46.72,50.22h-39.72V115.18z
		 M429.2,203.74c21.3,0,34.24-14.3,34.24-38.65c0-23.89-14-38.35-36.83-38.35h-24.04v77H429.2z"/>
	<path class="st0" d="M490.31,115.18h12.78v100.13h-12.78V115.18z"/>
	<path class="st0" d="M516.94,166.16c0-31.35,21.91-52.5,50.37-52.5c25.26,0,43.37,13.54,43.37,36.37c0,1.22,0,3.5-0.15,5.93h-11.87
		c0.15-1.98,0.15-3.8,0.15-5.33c0-15.98-13.39-25.41-31.5-25.41c-21.15,0-37.59,16.13-37.59,41.09c0,24.2,16.74,39.57,36.83,39.57
		c19.94,0,32.26-11.26,32.26-26.33v-2.89h-35.15v-9.44h47.94v48.09h-12.02c0.46-4.11,0.91-11.26,1.22-18.57h-0.15
		c-3.04,11.41-14.15,20.09-34.09,20.09C538.09,216.83,516.94,197.2,516.94,166.16z"/>
	<path class="st0" d="M629.45,115.18h12.78v100.13h-12.78V115.18z"/>
	<path class="st0" d="M684.02,126.59h-33.17v-11.41h79.13v11.41h-33.17v88.72h-12.78V126.59z"/>
	<path class="st0" d="M791.58,190.96h-51.89l-9.89,24.35H716.4l42.31-100.13h15.22l42.31,100.13h-14.91L791.58,190.96z
		 M787.78,181.53l-21.76-54.63h-0.3l-22.22,54.63H787.78z"/>
	<path class="st0" d="M825.03,115.18h12.78v88.57h52.65v11.57h-65.44V115.18z"/>
</g>
<g>
	<path class="st0" d="M248.29,230.35h21.3l31.04,82.94h0.15l31.5-82.94h20.85v100.13H340.2l0.3-91.46h-0.3l-34.7,91.46h-10.35
		l-34.7-91.46h-0.3l0.3,91.46h-12.17V230.35z"/>
	<path class="st0" d="M437.2,306.14H385.3l-9.89,24.35h-13.39l42.31-100.13h15.22l42.31,100.13h-14.91L437.2,306.14z M433.39,296.7
		l-21.76-54.63h-0.3l-22.22,54.63H433.39z"/>
	<path class="st0" d="M470.64,230.35h41.54c25.11,0,37.59,11.11,37.59,28.46c0,13.09-5.63,22.37-19.33,24.04v0.3
		c14.15,1.67,18.72,10.65,18.72,23.13v24.2h-13.09v-24.2c0-10.65-4.72-17.5-21.3-17.5h-31.35v41.7h-12.78V230.35z M512.03,279.35
		c18.26,0,25.26-7.76,25.26-19.48c0-11.11-8.22-17.96-25.11-17.96h-28.76v37.44H512.03z"/>
	<path class="st0" d="M565.92,230.35h12.78v60.11h0.3l60.72-60.11h16.89l-47.02,46.26l49.61,53.87h-17.65l-41.39-45.35l-21.46,20.09
		v25.26h-12.78V230.35z"/>
	<path class="st0" d="M667.79,230.35h66.35v11.57h-53.57v33.48h43.37v9.43h-43.37v34.09h54.94v11.57h-67.72V230.35z"/>
	<path class="st0" d="M773.37,241.77H740.2v-11.41h79.13v11.41h-33.17v88.72h-12.78V241.77z"/>
	<path class="st0" d="M828.11,230.35h12.78v100.13h-12.78V230.35z"/>
	<path class="st0" d="M859.53,230.35h20.54l54.33,83.09h0.3v-83.09h12.17v100.13h-15.07l-59.81-90.85h-0.3v90.85h-12.17V230.35z"/>
	<path class="st0" d="M960.47,281.33c0-31.35,21.91-52.5,50.37-52.5c25.26,0,43.37,13.54,43.37,36.37c0,1.22,0,3.5-0.15,5.93h-11.87
		c0.15-1.98,0.15-3.8,0.15-5.33c0-15.98-13.39-25.41-31.5-25.41c-21.15,0-37.59,16.13-37.59,41.09c0,24.2,16.74,39.57,36.83,39.57
		c19.94,0,32.26-11.26,32.26-26.33v-2.89h-35.15v-9.44h47.94v48.09h-12.02c0.46-4.11,0.91-11.26,1.22-18.57h-0.15
		c-3.04,11.41-14.15,20.09-34.09,20.09C981.62,332.01,960.47,312.38,960.47,281.33z"/>
</g>
<g>
	<path class="st0" d="M837.6,421.31h-51.89l-9.89,24.35h-13.39l42.31-100.13h15.22l42.31,100.13h-14.91L837.6,421.31z M833.8,411.88
		l-21.76-54.63h-0.3l-22.22,54.63H833.8z"/>
	<path class="st0" d="M861.12,396.51c0-31.35,21.91-52.5,50.37-52.5c25.26,0,43.37,13.54,43.37,36.37c0,1.22,0,3.5-0.15,5.93h-11.87
		c0.15-1.98,0.15-3.8,0.15-5.33c0-15.98-13.39-25.41-31.5-25.41c-21.15,0-37.59,16.13-37.59,41.09c0,24.2,16.74,39.57,36.83,39.57
		c19.94,0,32.26-11.26,32.26-26.33v-2.89h-35.15v-9.44h47.94v48.09h-12.02c0.46-4.11,0.91-11.26,1.22-18.57h-0.15
		c-3.04,11.41-14.15,20.09-34.09,20.09C882.28,447.18,861.12,427.55,861.12,396.51z"/>
	<path class="st0" d="M973.23,345.53h66.35v11.57h-53.57v33.48h43.37v9.43h-43.37v34.09h54.94v11.57h-67.72V345.53z"/>
	<path class="st0" d="M1050.35,345.53h20.54l54.33,83.09h0.3v-83.09h12.17v100.13h-15.07l-59.81-90.85h-0.3v90.85h-12.17V345.53z"/>
	<path class="st0" d="M1151.29,395.75c0-31.5,20.7-51.74,50.37-51.74c25.41,0,43.98,15.83,43.98,38.96c0,0.3,0,1.67-0.15,3.65
		h-11.72v-2.74c0-16.89-13.85-28.3-32.11-28.3c-21.76,0-37.59,15.67-37.59,40.17c0,24.35,16.59,39.87,37.59,39.87
		c18.41,0,32.57-11.11,32.57-27.09v-1.83h11.87v2.43c0,22.52-18.87,38.04-44.44,38.04C1172.59,447.18,1151.29,427.1,1151.29,395.75z
		"/>
	<path class="st0" d="M1284.44,404.73l-40.17-59.2h15.67l31.65,48.7h0.3l31.65-48.7h14l-40.33,59.2v40.94h-12.78V404.73z"/>
	<path class="st0" d="M1330.65,428.31h13.09v17.35h-13.09V428.31z"/>
</g>
</svg>
