<?xml version="1.0" encoding="UTF-8"?>
<svg id="Capa_2" data-name="Capa 2" xmlns="http://www.w3.org/2000/svg" viewBox="0 0 856.97 629.3">
  <defs>
    <style>
      .cls-1 {
        fill: #fff;
      }
    </style>
  </defs>
  <g id="Capa_1-2" data-name="Capa 1">
    <g>
      <path class="cls-1" d="m325.91,26.21h13.7s26.66,83.53,26.66,83.53h.46l25.38-82.49h13.09s25.14,82.46,25.14,82.46h.46l26.6-83.55h12.78s-33.14,100.14-33.14,100.14h-13.7s-24.83-80.49-24.83-80.49h-.46s-25.23,80.51-25.23,80.51h-13.85s-33.06-100.12-33.06-100.12Z"/>
      <path class="cls-1" d="m478.93,26.15l66.35-.02v11.57s-53.56.02-53.56.02v33.48s43.38-.02,43.38-.02v9.44s-43.37.02-43.37.02v34.09s54.95-.02,54.95-.02v11.57s-67.71.02-67.71.02l-.04-100.13Z"/>
      <path class="cls-1" d="m658.37,101.87l-51.89.02-9.88,24.35h-13.39s42.27-100.14,42.27-100.14h15.22s42.34,100.11,42.34,100.11h-14.91s-9.75-24.34-9.75-24.34Zm-3.81-9.43l-21.78-54.62h-.3s-22.2,54.64-22.2,54.64h44.28Z"/>
      <path class="cls-1" d="m691.79,26.08h41.54c25.11-.02,37.59,11.08,37.6,28.43,0,13.09-5.62,22.37-19.32,24.05v.3c14.15,1.67,18.72,10.65,18.73,23.12v24.2s-13.08,0-13.08,0v-24.2c-.01-10.65-4.73-17.5-21.32-17.49h-31.35s.01,41.71.01,41.71h-12.78s-.04-100.13-.04-100.13Zm41.41,48.99c18.26,0,25.26-7.77,25.25-19.49,0-11.11-8.22-17.95-25.11-17.95h-28.76s.01,37.45.01,37.45h28.61Z"/>
      <path class="cls-1" d="m787.06,26.04l66.35-.02v11.57s-53.56.02-53.56.02v33.48s43.38-.02,43.38-.02v9.44s-43.37.02-43.37.02v34.09s54.95-.02,54.95-.02v11.57s-67.71.02-67.71.02l-.04-100.13Z"/>
      <path class="cls-1" d="m12.22,141.49h39.87c24.2-.02,38.35,12.91,38.36,33.75,0,21.3-13.53,33.33-35.9,33.34h-29.52s.01,33.03.01,33.03h-12.78s-.04-100.13-.04-100.13Zm41.26,57.35c15.37,0,24.5-7.62,24.49-22.83,0-14.91-9.44-22.97-26.33-22.97h-26.63s.02,45.81.02,45.81h28.46Z"/>
      <path class="cls-1" d="m159.92,217.22l-51.89.02-9.88,24.35h-13.39s42.27-100.14,42.27-100.14h15.22s42.34,100.11,42.34,100.11h-14.91s-9.75-24.34-9.75-24.34Zm-3.81-9.43l-21.78-54.62h-.3l-22.2,54.64,44.28-.02Z"/>
      <path class="cls-1" d="m186.42,207.47h11.87c0,14.45,7.31,24.65,28.62,24.64,22.98,0,29.37-8.99,29.36-18.58,0-6.39-2.74-9.89-7.92-12.02-5.48-2.28-16.89-3.49-25.57-4.71-10.35-1.21-21.31-3.64-26.79-6.99-5.78-3.5-9.89-10.19-9.9-19.63,0-17.8,16.42-30.29,40.32-30.3,28,0,39.11,12.92,39.12,36.05h-11.87c0-17.5-9.75-25.1-26.94-25.1-16.28,0-27.85,7.31-27.84,18.27,0,6.39,2.44,10.19,6.7,12.32,4.87,2.43,16.89,4.25,25.57,5.47,10.04,1.37,20.54,3.04,27.09,6.38,6.7,3.35,10.81,10.34,10.81,19.47,0,15.22-9.42,30.29-42.14,30.3-32.11.01-40.48-17.49-40.49-35.59Z"/>
      <path class="cls-1" d="m278.68,207.44h11.87c0,14.45,7.31,24.65,28.62,24.64,22.98,0,29.37-8.99,29.36-18.58,0-6.39-2.74-9.89-7.92-12.02-5.48-2.28-16.89-3.49-25.57-4.71-10.35-1.21-21.31-3.64-26.79-6.99-5.78-3.5-9.89-10.19-9.9-19.63,0-17.8,16.42-30.29,40.32-30.3,28,0,39.11,12.92,39.12,36.05h-11.87c0-17.5-9.75-25.1-26.94-25.1-16.28,0-27.85,7.31-27.84,18.27,0,6.39,2.44,10.19,6.7,12.32,4.87,2.43,16.89,4.25,25.57,5.47,10.04,1.37,20.54,3.04,27.09,6.38,6.7,3.35,10.81,10.34,10.81,19.47,0,15.22-9.42,30.29-42.14,30.3-32.11.01-40.48-17.49-40.49-35.59Z"/>
      <path class="cls-1" d="m375.66,141.36h12.78s.04,100.13.04,100.13h-12.78s-.04-100.13-.04-100.13Z"/>
      <path class="cls-1" d="m402.31,190.96c-.01-31.5,22.2-51.14,50.5-51.15,28.3,0,50.53,19.61,50.54,51.11.01,32.11-22.2,52.05-50.5,52.06-28.3,0-50.53-19.92-50.54-52.03Zm88.26-.03c0-24.5-17.21-39.56-37.75-39.55s-37.73,15.08-37.73,39.58c0,24.96,17.21,40.47,37.75,40.47s37.73-15.54,37.73-40.49Z"/>
      <path class="cls-1" d="m517,141.31h20.54s54.36,83.06,54.36,83.06h.3l-.03-83.09h12.17s.04,100.13.04,100.13h-15.06s-59.84-90.82-59.84-90.82h-.3s.03,90.85.03,90.85h-12.17s-.04-100.13-.04-100.13Z"/>
      <path class="cls-1" d="m688.34,217.04l-51.89.02-9.88,24.35h-13.39s42.27-100.14,42.27-100.14h15.22s42.34,100.11,42.34,100.11h-14.91s-9.75-24.34-9.75-24.34Zm-3.81-9.43l-21.78-54.62h-.3l-22.2,54.64,44.28-.02Z"/>
      <path class="cls-1" d="m732.65,152.65h-33.17s0-11.4,0-11.4l79.13-.03v11.41s-33.17.01-33.17.01l.03,88.72h-12.78s-.03-88.71-.03-88.71Z"/>
      <path class="cls-1" d="m787.1,141.22l66.35-.02v11.56s-53.56.02-53.56.02v33.48s43.38-.02,43.38-.02v9.44s-43.37.02-43.37.02v34.09s54.95-.02,54.95-.02v11.57s-67.71.02-67.71.02l-.04-100.13Z"/>
      <path class="cls-1" d="m451.07,332.3l-51.89.02-9.88,24.35h-13.39s42.27-100.14,42.27-100.14h15.22s42.34,100.11,42.34,100.11h-14.91s-9.75-24.34-9.75-24.34Zm-3.81-9.43l-21.78-54.62h-.3l-22.2,54.64,44.28-.02Z"/>
      <path class="cls-1" d="m484.49,256.5h40.78c23.28-.02,34.09,10.17,34.1,26.15,0,11.56-5.78,19.94-17.64,21.46v.15c13.85,1.21,21.46,10.34,21.46,23.43,0,17.65-9.73,28.92-34.23,28.92l-44.44.02-.04-100.13Zm42.47,43.96c14.15,0,20.54-6.25,20.54-16.14,0-10.04-6.55-16.59-22.38-16.58h-27.85s.01,32.73.01,32.73h29.67Zm1.54,44.88c17.2,0,22.21-7.31,22.21-18.88,0-10.04-8.22-16.58-22.83-16.58h-30.59s.01,35.47.01,35.47h31.2Z"/>
      <path class="cls-1" d="m571.17,306.08c-.01-31.5,22.2-51.14,50.5-51.15,28.3,0,50.53,19.61,50.54,51.11.01,32.11-22.2,52.05-50.5,52.06-28.3.01-50.53-19.92-50.54-52.02Zm88.26-.03c0-24.5-17.21-39.56-37.75-39.55-20.54,0-37.73,15.08-37.73,39.58,0,24.96,17.21,40.47,37.75,40.46,20.54,0,37.73-15.53,37.72-40.49Z"/>
      <path class="cls-1" d="m684.88,319.74l-.02-63.31h12.78s.02,63.3.02,63.3c0,16.43,11.27,26.78,30.14,26.77,18.87,0,30.13-10.36,30.12-26.79l-.02-63.31h11.57s.02,63.3.02,63.3c0,22.83-15.96,38.35-42.14,38.36-26.33,0-42.46-15.51-42.47-38.33Z"/>
      <path class="cls-1" d="m810.89,267.8h-33.17s0-11.4,0-11.4l79.13-.03v11.41s-33.17.01-33.17.01l.03,88.72h-12.78s-.03-88.71-.03-88.71Z"/>
      <path class="cls-1" d="m42.75,371.83h21.3s31.07,82.92,31.07,82.92h.15l31.47-82.95h20.85s.04,100.12.04,100.12h-12.94s.27-91.45.27-91.45h-.3l-34.66,91.47h-10.35s-34.73-91.44-34.73-91.44h-.3l.34,91.46h-12.17s-.04-100.13-.04-100.13Z"/>
      <path class="cls-1" d="m231.68,447.55l-51.89.02-9.88,24.35h-13.39s42.27-100.14,42.27-100.14h15.22s42.34,100.11,42.34,100.11h-14.91s-9.75-24.34-9.75-24.34Zm-3.81-9.43l-21.78-54.62h-.3l-22.2,54.64h44.28Z"/>
      <path class="cls-1" d="m265.1,371.75h41.54c25.11-.02,37.59,11.08,37.6,28.43,0,13.09-5.62,22.37-19.32,24.05v.3c14.15,1.67,18.72,10.65,18.73,23.12v24.2s-13.08,0-13.08,0v-24.2c-.01-10.65-4.73-17.5-21.32-17.49h-31.35s.01,41.71.01,41.71h-12.78s-.04-100.13-.04-100.13Zm41.41,48.99c18.26,0,25.26-7.77,25.25-19.49,0-11.11-8.22-17.95-25.12-17.95h-28.76s.01,37.45.01,37.45h28.61Z"/>
      <path class="cls-1" d="m360.38,371.72h12.78s.02,60.1.02,60.1h.3l60.7-60.13h16.89s-47.01,46.27-47.01,46.27l49.63,53.85h-17.65s-41.41-45.33-41.41-45.33l-21.45,20.09v25.26s-12.77,0-12.77,0l-.04-100.13Z"/>
      <path class="cls-1" d="m462.25,371.68l66.35-.02v11.57s-53.56.02-53.56.02v33.48s43.38-.02,43.38-.02v9.44s-43.37.02-43.37.02v34.09s54.95-.02,54.95-.02v11.57s-67.71.02-67.71.02l-.04-100.13Z"/>
      <path class="cls-1" d="m567.84,383.06h-33.17s0-11.4,0-11.4l79.13-.03v11.41s-33.17.01-33.17.01l.03,88.72h-12.78s-.03-88.71-.03-88.71Z"/>
      <path class="cls-1" d="m622.57,371.63h12.78s.04,100.13.04,100.13h-12.78s-.04-100.13-.04-100.13Z"/>
      <path class="cls-1" d="m653.99,371.62h20.54s54.36,83.06,54.36,83.06h.3l-.03-83.09h12.17s.04,100.13.04,100.13h-15.06s-59.84-90.82-59.84-90.82h-.3l.03,90.85h-12.17s-.04-100.13-.04-100.13Z"/>
      <path class="cls-1" d="m754.94,422.56c-.01-31.35,21.89-52.51,50.35-52.52,25.26,0,43.37,13.53,43.38,36.35,0,1.22,0,3.5-.15,5.93h-11.87c.15-1.97.15-3.8.15-5.32,0-15.98-13.4-25.41-31.51-25.4-21.15,0-37.58,16.14-37.57,41.1,0,24.2,16.75,39.56,36.84,39.55,19.94,0,32.26-11.27,32.25-26.34v-2.89s-35.15.01-35.15.01v-9.44s47.93-.02,47.93-.02l.02,48.09h-12.02c.46-4.1.91-11.26,1.21-18.56h-.15c-3.04,11.41-14.15,20.09-34.08,20.1-28.46,0-49.62-19.61-49.63-50.66Z"/>
      <path class="cls-1" d="m233.29,577.03v10.8c-.6.15-1.97.3-3.5.31-8.98,0-18.11-3.34-27.09-10.03-8.06,6.7-17.8,10.51-29.37,10.51-21.15,0-34.7-12.77-34.71-31.18,0-15.07,10.03-26.63,26.01-29.68-3.05-7.15-4.42-13.54-4.42-18.26,0-15.07,9.88-24.05,24.64-24.05,14.61,0,23.89,9.12,23.9,22.21,0,14-10.95,24.5-27.99,26.64,5.94,10.04,14.62,20.69,22.23,28.14,6.39-8.68,11.1-19.79,14.14-31.81h11.26c-3.19,13.54-9.12,27.85-17.33,38.65,7,5.17,13.85,7.91,20.09,7.91.46,0,1.22,0,2.13-.15Zm-59.2.63c7.76,0,14.76-2.44,20.69-6.7-10.05-10.19-19.49-22.67-25.58-33.92h-.46c-11.11,1.83-17.95,9.9-17.95,20.4,0,11.72,9.14,20.24,23.29,20.23Zm-1.85-68.17c0,5.78,1.53,10.65,3.96,16.13,14-1.98,21.3-8.99,21.3-17.66,0-6.7-4.87-11.56-12.63-11.56-7.3,0-12.63,5.03-12.63,13.09Z"/>
      <path class="cls-1" d="m272.99,552.97h11.87c0,14.45,7.31,24.65,28.62,24.64,22.98,0,29.37-8.99,29.36-18.58,0-6.39-2.74-9.89-7.92-12.02-5.48-2.28-16.89-3.49-25.57-4.71-10.35-1.21-21.31-3.64-26.79-6.99-5.78-3.5-9.9-10.19-9.9-19.63,0-17.8,16.42-30.29,40.32-30.3,28,0,39.11,12.92,39.12,36.05h-11.87c0-17.5-9.75-25.1-26.94-25.1-16.28,0-27.85,7.31-27.84,18.27,0,6.39,2.44,10.19,6.7,12.32,4.87,2.43,16.89,4.25,25.57,5.47,10.04,1.37,20.54,3.04,27.09,6.38,6.7,3.35,10.81,10.34,10.81,19.47,0,15.22-9.42,30.29-42.14,30.3-32.11.01-40.48-17.49-40.49-35.59Z"/>
      <path class="cls-1" d="m369.5,486.89h39.87c24.2-.02,38.35,12.91,38.36,33.76,0,21.3-13.53,33.33-35.9,33.34h-29.52s.01,33.03.01,33.03h-12.78s-.04-100.13-.04-100.13Zm41.26,57.35c15.37,0,24.5-7.62,24.49-22.83,0-14.91-9.44-22.97-26.33-22.97h-26.63s.02,45.81.02,45.81h28.46Z"/>
      <path class="cls-1" d="m455.71,536.47c-.01-31.5,22.2-51.14,50.5-51.15,28.3,0,50.53,19.61,50.54,51.11.01,32.11-22.2,52.05-50.5,52.06-28.3,0-50.53-19.92-50.54-52.03Zm88.26-.03c0-24.5-17.21-39.56-37.75-39.55-20.54,0-37.73,15.08-37.73,39.58,0,24.96,17.21,40.47,37.75,40.46,20.54,0,37.73-15.54,37.73-40.49Z"/>
      <path class="cls-1" d="m570.4,486.82h41.54c25.11-.02,37.59,11.08,37.6,28.43,0,13.09-5.62,22.37-19.32,24.05v.3c14.15,1.67,18.72,10.65,18.73,23.12v24.2s-13.08,0-13.08,0v-24.2c-.01-10.65-4.73-17.5-21.32-17.49h-31.35s.01,41.71.01,41.71h-12.78s-.04-100.13-.04-100.13Zm41.41,48.99c18.26,0,25.26-7.77,25.25-19.49,0-11.11-8.22-17.95-25.12-17.95h-28.76s.01,37.45.01,37.45h28.61Z"/>
      <path class="cls-1" d="m687.71,498.19h-33.17s0-11.4,0-11.4l79.13-.03v11.41s-33.17.01-33.17.01l.03,88.72h-12.78s-.03-88.71-.03-88.71Z"/>
      <path class="cls-1" d="m738.02,552.81h11.87c0,14.45,7.31,24.65,28.62,24.64,22.98,0,29.37-8.99,29.36-18.58,0-6.39-2.74-9.89-7.92-12.02-5.48-2.28-16.89-3.49-25.57-4.71-10.35-1.21-21.31-3.65-26.79-6.99-5.78-3.5-9.89-10.19-9.9-19.63,0-17.8,16.42-30.29,40.32-30.3,28,0,39.11,12.92,39.12,36.05h-11.87c0-17.5-9.75-25.1-26.94-25.1-16.28,0-27.85,7.31-27.84,18.27,0,6.39,2.44,10.19,6.7,12.32,4.87,2.43,16.89,4.25,25.57,5.47,10.04,1.37,20.54,3.04,27.09,6.38,6.7,3.35,10.81,10.34,10.81,19.47,0,15.22-9.42,30.29-42.14,30.3-32.11.01-40.48-17.49-40.49-35.59Z"/>
      <path class="cls-1" d="m834.43,569.51h13.09s0,17.34,0,17.34h-13.09s0-17.34,0-17.34Z"/>
    </g>
  </g>
</svg>