<?xml version="1.0" encoding="utf-8"?>
<!-- Generator: Adobe Illustrator 27.0.1, SVG Export Plug-In . SVG Version: 6.00 Build 0)  -->
<svg version="1.1" id="Capa_1" xmlns="http://www.w3.org/2000/svg" xmlns:xlink="http://www.w3.org/1999/xlink" x="0px" y="0px"
	 viewBox="0 0 1178.14 333.53" style="enable-background:new 0 0 1178.14 333.53;" xml:space="preserve">
<style type="text/css">
	.st0{fill:#FFFFFF;}
</style>
<g>
	<g>
		<path class="st0" d="M8.83,1.52h12.78v88.57h52.65v11.57H8.83V1.52z"/>
		<path class="st0" d="M83.04,1.52h66.35v11.57H95.82v33.48h43.37V56H95.82v34.09h54.94v11.57H83.04V1.52z"/>
		<path class="st0" d="M188.62,12.93h-33.17V1.52h79.13v11.41H201.4v88.72h-12.78V12.93z"/>
		<path class="st0" d="M276.73,64.83V1.52h12.78v63.3c0,16.44,11.26,26.78,30.13,26.78c18.87,0,30.13-10.35,30.13-26.78V1.52h11.57
			v63.3c0,22.83-15.98,38.35-42.15,38.35C292.86,103.17,276.73,87.65,276.73,64.83z"/>
		<path class="st0" d="M375.2,67.57h11.87c0,14.46,7.3,24.65,28.61,24.65c22.98,0,29.37-8.98,29.37-18.57
			c0-6.39-2.74-9.89-7.91-12.02c-5.48-2.28-16.89-3.5-25.57-4.72c-10.35-1.22-21.3-3.65-26.78-7c-5.78-3.5-9.89-10.2-9.89-19.63
			c0-17.8,16.44-30.28,40.33-30.28c28,0,39.11,12.93,39.11,36.07h-11.87c0-17.5-9.74-25.11-26.94-25.11
			c-16.28,0-27.85,7.3-27.85,18.26c0,6.39,2.43,10.2,6.7,12.33c4.87,2.43,16.89,4.26,25.57,5.48c10.04,1.37,20.54,3.04,27.09,6.39
			c6.7,3.35,10.8,10.35,10.8,19.48c0,15.22-9.43,30.28-42.15,30.28C383.56,103.17,375.2,85.67,375.2,67.57z"/>
		<path class="st0" d="M505,1.52h12.78v60.11h0.3L578.8,1.52h16.89l-47.02,46.26l49.61,53.87h-17.65L539.24,56.3l-21.46,20.09v25.26
			H505V1.52z"/>
		<path class="st0" d="M606.88,1.52h20.54l54.33,83.09h0.3V1.52h12.17v100.13h-15.07l-59.8-90.85h-0.3v90.85h-12.17V1.52z"/>
		<path class="st0" d="M707.81,51.13c0-31.5,22.22-51.13,50.52-51.13s50.52,19.63,50.52,51.13c0,32.11-22.22,52.04-50.52,52.04
			S707.81,83.24,707.81,51.13z M796.07,51.13c0-24.5-17.2-39.57-37.74-39.57c-20.54,0-37.74,15.06-37.74,39.57
			c0,24.96,17.2,40.48,37.74,40.48C778.88,91.61,796.07,76.09,796.07,51.13z"/>
		<path class="st0" d="M808.84,1.52h13.7l26.63,83.54h0.46l25.41-82.48h13.09l25.11,82.48h0.46l26.63-83.54h12.78l-33.17,100.13
			h-13.7l-24.8-80.5h-0.46l-25.26,80.5h-13.85L808.84,1.52z"/>
		<path class="st0" d="M40.17,175.89L0,116.7h15.67l31.65,48.7h0.3l31.65-48.7h14l-40.33,59.2v40.94H40.17V175.89z"/>
		<path class="st0" d="M88.87,166.31c0-31.5,22.22-51.13,50.52-51.13s50.52,19.63,50.52,51.13c0,32.11-22.22,52.04-50.52,52.04
			S88.87,198.42,88.87,166.31z M177.13,166.31c0-24.5-17.2-39.57-37.74-39.57c-20.54,0-37.74,15.06-37.74,39.57
			c0,24.96,17.2,40.48,37.74,40.48C159.94,206.79,177.13,191.26,177.13,166.31z"/>
		<path class="st0" d="M202.57,180v-63.3h12.78V180c0,16.44,11.26,26.78,30.13,26.78c18.87,0,30.13-10.35,30.13-26.78v-63.3h11.57
			V180c0,22.83-15.98,38.35-42.15,38.35C218.7,218.35,202.57,202.83,202.57,180z"/>
		<path class="st0" d="M333.9,182.74h11.87c0,14.46,7.3,24.65,28.61,24.65c22.98,0,29.37-8.98,29.37-18.57
			c0-6.39-2.74-9.89-7.91-12.02c-5.48-2.28-16.89-3.5-25.57-4.72c-10.35-1.22-21.3-3.65-26.78-7c-5.78-3.5-9.89-10.2-9.89-19.63
			c0-17.8,16.44-30.28,40.33-30.28c28,0,39.11,12.93,39.11,36.07h-11.87c0-17.5-9.74-25.11-26.94-25.11
			c-16.28,0-27.85,7.3-27.85,18.26c0,6.39,2.43,10.2,6.7,12.33c4.87,2.43,16.89,4.26,25.57,5.48c10.04,1.37,20.54,3.04,27.09,6.39
			c6.7,3.35,10.8,10.35,10.8,19.48c0,15.22-9.43,30.28-42.15,30.28C342.27,218.35,333.9,200.85,333.9,182.74z"/>
		<path class="st0" d="M451.81,128.11h-33.17V116.7h79.13v11.41H464.6v88.72h-12.78V128.11z"/>
		<path class="st0" d="M497.11,166.31c0-31.5,22.22-51.13,50.52-51.13s50.52,19.63,50.52,51.13c0,32.11-22.22,52.04-50.52,52.04
			S497.11,198.42,497.11,166.31z M585.38,166.31c0-24.5-17.2-39.57-37.74-39.57c-20.54,0-37.74,15.06-37.74,39.57
			c0,24.96,17.2,40.48,37.74,40.48C568.18,206.79,585.38,191.26,585.38,166.31z"/>
		<path class="st0" d="M611.82,116.7h39.87c24.2,0,38.35,12.93,38.35,33.78c0,21.3-13.54,33.33-35.91,33.33H624.6v33.02h-12.78
			V116.7z M653.06,174.07c15.37,0,24.5-7.61,24.5-22.83c0-14.91-9.43-22.98-26.33-22.98H624.6v45.8H653.06z"/>
		<path class="st0" d="M701.34,116.7h39.87c24.2,0,38.35,12.93,38.35,33.78c0,21.3-13.54,33.33-35.91,33.33h-29.52v33.02h-12.78
			V116.7z M742.58,174.07c15.37,0,24.5-7.61,24.5-22.83c0-14.91-9.43-22.98-26.33-22.98h-26.63v45.8H742.58z"/>
		<path class="st0" d="M790.87,116.7h66.35v11.57h-53.57v33.48h43.37v9.43h-43.37v34.09h54.94v11.57h-67.72V116.7z"/>
		<path class="st0" d="M867.99,116.7h36.52c30.89,0,49.91,18.87,49.91,49.91c0,31.35-17.8,50.22-46.72,50.22h-39.72V116.7z
			 M907.4,205.26c21.3,0,34.24-14.3,34.24-38.65c0-23.89-14-38.35-36.83-38.35h-24.04v77H907.4z"/>
		<path class="st0" d="M1001.59,116.7h40.78c23.28,0,34.09,10.2,34.09,26.17c0,11.57-5.78,19.94-17.65,21.46v0.15
			c13.85,1.22,21.46,10.35,21.46,23.43c0,17.65-9.74,28.91-34.24,28.91h-44.43V116.7z M1044.05,160.68
			c14.15,0,20.54-6.24,20.54-16.13c0-10.04-6.54-16.59-22.37-16.59h-27.85v32.72H1044.05z M1045.57,205.57
			c17.2,0,22.22-7.3,22.22-18.87c0-10.04-8.22-16.59-22.83-16.59h-30.59v35.46H1045.57z"/>
		<path class="st0" d="M1119.38,175.89l-40.17-59.2h15.67l31.65,48.7h0.3l31.65-48.7h14l-40.33,59.2v40.94h-12.78V175.89z"/>
		<path class="st0" d="M1161.4,229.76c6.54-0.91,8.98-4.87,9.13-12.63v-0.3h-5.48v-17.35h13.09v12.94
			c0,15.52-5.02,22.83-16.74,24.35V229.76z"/>
		<path class="st0" d="M4.57,297.92h11.87c0,14.46,7.3,24.65,28.61,24.65c22.98,0,29.37-8.98,29.37-18.57
			c0-6.39-2.74-9.89-7.91-12.02c-5.48-2.28-16.89-3.5-25.57-4.72c-10.35-1.22-21.3-3.65-26.78-7c-5.78-3.5-9.89-10.2-9.89-19.63
			c0-17.8,16.44-30.28,40.33-30.28c28,0,39.11,12.93,39.11,36.07H71.83c0-17.5-9.74-25.11-26.94-25.11
			c-16.28,0-27.85,7.3-27.85,18.26c0,6.39,2.43,10.2,6.7,12.33c4.87,2.43,16.89,4.26,25.57,5.48c10.04,1.37,20.54,3.04,27.09,6.39
			c6.7,3.35,10.8,10.35,10.8,19.48c0,15.22-9.43,30.28-42.15,30.28C12.94,333.53,4.57,316.03,4.57,297.92z"/>
		<path class="st0" d="M164.59,307.66H112.7l-9.89,24.35H89.42l42.31-100.13h15.22l42.31,100.13h-14.91L164.59,307.66z
			 M160.79,298.22l-21.76-54.63h-0.3l-22.22,54.63H160.79z"/>
		<path class="st0" d="M214.09,291.07l-40.17-59.2h15.67l31.65,48.7h0.3l31.65-48.7h14l-40.33,59.2v40.94h-12.78V291.07z"/>
		<path class="st0" d="M310.11,231.87h12.78v42.61h61.48v-42.61h12.78v100.13h-12.78v-46.87h-61.48v46.87h-12.78V231.87z"/>
		<path class="st0" d="M416.04,231.87h12.78v100.13h-12.78V231.87z"/>
		<path class="st0" d="M445.53,314.66h13.09v17.35h-13.09V314.66z M445.98,246.18v-16.43h12.17v16.43l-3.65,52.2h-4.87
			L445.98,246.18z"/>
	</g>
</g>
</svg>
